#!OML:ASF F:\VICON\USERDATA\INSTALL\rory3\rory3.ASF
:FULLY-SPECIFIED
:DEGREES
133
root 0.16000469658074395 17.31063812330066 45.952442417999336 2.2744544518191265 2.7713703694798664 1.6044181968972326
lfemur -11.193029642142603 -0.4910011156465864 -27.64117463447657
ltibia 36.234572056949744
lfoot -22.276920572462576 8.951696408380549
ltoes -14.736692531286279
rfemur -45.340722700324115 -9.728193919047389 17.029248057324942
rtibia 159.33392193133986
rfoot -3.8833477312400992 -6.72855918013656
rtoes -4.404856085136393
lowerback nan 0.6497988035233087 -4.905192571306211
upperback 0.5449255583564079 0.4944306838482737 -0.4262604083101109
thorax -8.966446090343972 0.22083483056639802 3.209770361597778
lowerneck -23.08620548317038 -3.427322414774846 -1.1811214662507328
upperneck 9.980921727197408 -5.144271726337592 5.033145194822152
head 7.059549183824137 -2.14198375350382 1.3367293028544442
lclavicle -6.009700628900226e-15 -2.0392508347969043e-14
lhumerus -35.99155817876547 -9.790728189420268 93.47761807169641
lradius 129.80773731259995
lwrist 31.616171974492342
lhand -23.268414150706487 -0.081335771874391
lfingers nan
lthumb 2.6438178421051597 29.169663980166934
rclavicle -3.66136022686245e-15 -1.9794342802985836e-14
rhumerus -57.875196321396885 7.810091264188958 -102.24940796984914
rradius 98.70437717812321
rwrist -6.055870447470071
rhand -21.041864418450587 nan
rfingers nan
rthumb 5.415713844836135 11.768531279352889
134
root 0.18988665742262006 17.343058375684073 46.05694163505142 2.4047973387345913 3.2000452113795728 1.7797050646569215
lfemur -8.760039916598963 -0.9217715624145695 -28.04963601545142
ltibia 34.955627269582166
lfoot -21.026508534607284 8.614928965018187
ltoes -18.285510556760393
rfemur -47.20720918499352 -10.21340838986937 17.110826914330396
rtibia 157.47408766640177
rfoot -4.875244516130455 -4.979050765323205
rtoes -8.07683991255223
lowerback nan 0.19959760476603827 -4.99712207216008
upperback -0.08970785707832651 -0.15998728046883692 -0.3077167775252099
thorax -10.00859235068446 -0.1016020503482894 3.415273010438079
lowerneck -22.325566028407383 -3.13189902099548 -1.1191491570480148
upperneck 10.387414491647915 -4.794061764446155 4.9248438192088315
head 7.055428342513088 -1.9814545843821394 1.3403292239859725
lclavicle -8.628635246156373e-15 -1.3331803276543438e-14
lhumerus -36.24148593451825 -9.32388827108969 93.61019024228054
lradius 130.55897726776155
lwrist 31.453107816200447
lhand -22.982390060880387 0.2665736669579788
lfingers nan
lthumb 2.8861292380933916 29.471491937152702
rclavicle -6.156337616885841e-15 -1.2505488205710695e-14
rhumerus -59.468677271755226 7.896946348711188 -102.290185010643
rradius 99.54541873523368
rwrist -8.000034432765244
rhand -20.351132616817104 nan
rfingers nan
rthumb 6.048957617902995 11.987022042007307
135
root 0.20777461592450513 17.383937729634372 46.41892772235022 2.533695031609022 3.399436474416815 1.7809645490157457
lfemur -6.05974507568682 -1.2588303859883543 -28.274618629729357
ltibia 33.7567735265924
lfoot -19.86072169997488 8.183239209893305
ltoes -21.590275254213502
rfemur -48.93017575570388 -10.265080606813834 17.50421215670659
rtibia 155.2357009520518
rfoot -6.103971418423023 -3.7610408841081497
rtoes -20.11822268656995
lowerback nan -0.19159218300476788 -5.056916252701804
upperback -0.5142825245106293 -0.7422632611693751 -0.11190830659384088
thorax -10.710110704928226 -0.3524537104960843 3.818771604159344
lowerneck -22.20250426462631 -2.858514049414219 -1.1252028033111559
upperneck 11.088589113850352 -4.402302706142956 4.735358234021255
head 7.190271068461793 -1.810027017370809 1.3214486858857164
lclavicle -1.1396495011628186e-14 -1.9872735846612486e-14
lhumerus -36.259670213454186 -8.893992345738017 93.68123456563974
lradius 131.2922425839538
lwrist 32.48559637740176
lhand -23.002216684543477 0.5995124660605669
lfingers nan
lthumb 2.8522678415131395 29.790868609087926
rclavicle -8.969995845838739e-15 -1.9246791435630247e-14
rhumerus -60.822504226737585 7.941458573761022 -101.97217286422624
rradius 100.56391567941084
rwrist -10.019564802472857
rhand -19.436494569169103 nan
rfingers nan
rthumb 6.87621302056284 12.0384722778999
136
root 0.20912039223272078 17.437031493404223 46.77525234559388 2.522963384978664 3.4108465263316594 1.3754790704928492
lfemur -3.7323262272326723 -1.51669870205437 -27.97095199623362
ltibia 32.51619271357907
lfoot -17.98355438437538 7.216783149540205
ltoes -25.101282346875315
rfemur -50.426261186640716 -9.944869166349491 18.459849686443015
rtibia 152.34858957154148
rfoot -5.295354914319238 -2.70705969131063
rtoes -14.59280809236921
lowerback nan -0.6146322133537988 -4.764644278872428
upperback -0.5867526964232692 -1.293416901269626 0.2483483892605456
thorax -10.597899575332772 -0.5649348885171157 4.170874865034435
lowerneck -21.93735430210482 -2.4981095206976867 -0.8659712205687011
upperneck 11.406714105903873 -3.86484335749761 4.468259795590243
head 7.203569582739163 -1.6031920412190002 1.247260298399206
lclavicle -2.412241366262129e-14 -3.7061934375184065e-14
lhumerus -36.09742079375897 -8.401188012304713 93.59955507310669
lradius 132.05780679795512
lwrist 34.216097495197516
lhand -23.377147743638226 -0.1842481822066
lfingers nan
lthumb 2.4840199363232807 29.005500970128345
rclavicle -2.226475078854377e-14 -3.704756433197235e-14
rhumerus -61.80438950832555 8.215689396095657 -101.6124552168351
rradius 101.42817260582682
rwrist -11.307750916907183
rhand -18.570200248243026 nan
rfingers nan
rthumb 7.639875547351439 12.067155274636807
137
root 0.23513454425257047 17.49699859111618 47.418059861615895 2.6244992251502612 3.7918186046498636 0.9363584167025496
lfemur -1.5909587064905484 -1.9447862745915476 -27.45155406177156
ltibia 31.258735310448273
lfoot -15.522295284264715 6.040244255309999
ltoes -29.295328919004863
rfemur -51.90135337711878 -9.804527500473826 19.48468616487156
rtibia 149.0961517507394
rfoot -5.908311168078964 -2.3767879065960216
rtoes -15.84582687114727
lowerback nan -1.1199012497159742 -4.048013994222089
upperback -0.3515370218894198 -1.8555263151655266 0.6817097380026405
thorax -10.015421293972736 -0.8276285642043697 4.322763486983927
lowerneck -22.846445145564925 -2.2823076454349085 -0.860941042571882
upperneck 11.951105063873387 -3.4992866519119765 4.290537088353252
head 7.424441855734578 -1.456742189852899 1.2044797646254093
lclavicle -2.343203888133574e-14 -8.070671166869954e-15
lhumerus -35.63448421713162 -8.23998627321501 93.51963969581934
lradius 132.7948439676685
lwrist 36.32519525709557
lhand -23.42138867909231 -0.12010692141697832
lfingers nan
lthumb 2.427295221906247 29.042755738018162
rclavicle -2.1244405430893925e-14 -7.63728466467725e-15
rhumerus -61.96186952075581 8.52162691292506 -100.77743731989602
rradius 101.86995322246835
rwrist -11.43052793144187
rhand -18.01921805237296 nan
rfingers nan
rthumb 8.095855431188573 12.097397652418016
138
root 0.2454239488091992 17.573105419851018 47.5130320293866 3.038159706395304 3.8330864033918557 0.5137838305265694
lfemur 0.46505042065547464 -2.154890171297998 -26.928521995301665
ltibia 29.841761966610907
lfoot -12.69581878106407 4.170826655443812
ltoes -30.271695307448624
rfemur -53.46961044816655 -9.361368861478843 20.365774988959522
rtibia 145.54931002269456
rfoot -6.316891257084316 -2.40830596391447
rtoes -16.441216178385027
lowerback nan -1.504965668882007 -3.648377468228271
upperback -0.7695237182243935 -2.2913315151964264 1.1099541104019308
thorax -10.2723148358048 -1.0417554650751286 4.7048292907324
lowerneck -22.851795383461308 -2.106679517970439 -0.8642664242495322
upperneck 12.701182511063175 -3.163982939761188 4.08869531904098
head 7.601707922640364 -1.3281532265561151 1.15534795831947
lclavicle -1.1097217339381835e-14 -9.014892903685446e-15
lhumerus -35.953455473243935 -8.17578947095437 93.54559954023763
lradius 133.3957487792561
lwrist 38.474131737494915
lhand -23.269146686432208 0.07229100290793866
lfingers nan
lthumb 2.5654008198505727 29.230342486347265
rclavicle -9.061832425028343e-15 -8.896348753657058e-15
rhumerus -62.84888954172356 8.63063089661128 -100.20053154748263
rradius 102.26364455777923
rwrist -10.648498150798012
rhand -18.13466007278182 nan
rfingers nan
rthumb 7.917693362692269 12.046532018177428
